<svg data-v-0dd9719b="" version="1.0" xmlns="http://www.w3.org/2000/svg" xmlns:xlink="http://www.w3.org/1999/xlink" width="100%" height="100%" viewBox="0 0 340.000000 250.000000" preserveAspectRatio="xMidYMid meet" color-interpolation-filters="sRGB" style="margin: auto;"> <rect data-v-0dd9719b="" x="0" y="0" width="100%" height="100%" fill="#fff" fill-opacity="1" class="background"></rect> <rect data-v-0dd9719b="" x="0" y="0" width="100%" height="100%" fill="url(#watermark)" fill-opacity="1" class="watermarklayer"></rect> <g data-v-0dd9719b="" fill="#333" class="icon-text-wrapper icon-svg-group iconsvg" transform="translate(47.12999725341797,95.00090026855469)"><g class="iconsvg-imagesvg" transform="translate(0,0)"><g><rect fill="#333" fill-opacity="0" stroke-width="2" x="0" y="0" width="60" height="59.99820005399838" class="image-rect"></rect> <svg x="0" y="0" width="60" height="59.99820005399838" filtersec="colorsb756918365" class="image-svg-svg primary" style="overflow: visible;"><svg xmlns="http://www.w3.org/2000/svg" viewBox="-0.0322113037109375 -0.00048828125 938.7086181640625 938.6768798828125"><path d="M712.75 787.76l25.45-25.6a18.05 18.05 0 0 0-.07-25.53l-25.6-25.45a18.05 18.05 0 0 0-25.53.07l-25.45 25.6a18.05 18.05 0 0 0 .07 25.53l25.6 25.46a18.05 18.05 0 0 0 25.53-.08zM584.89 711.53l-25.46 25.61a18 18 0 0 0 .07 25.52l25.6 25.46a18.05 18.05 0 0 0 25.53-.07l25.46-25.6a18.05 18.05 0 0 0-.07-25.53l-25.6-25.45a18.05 18.05 0 0 0-25.53.06zM635.73 634.81l-25.6-25.46a18.05 18.05 0 0 0-25.53.07L559.15 635a18.05 18.05 0 0 0 .07 25.53l25.6 25.47a18.07 18.07 0 0 0 25.53-.07l25.45-25.61a18 18 0 0 0-.07-25.51zM737.85 634.52l-25.6-25.46a18.06 18.06 0 0 0-25.53.07l-25.46 25.61a18 18 0 0 0 .07 25.52l25.6 25.46a18.05 18.05 0 0 0 25.53-.07l25.46-25.6a18.05 18.05 0 0 0-.07-25.53z" fill="#ea5504"></path><path d="M150.9 712.75l25.6 25.45a18.05 18.05 0 0 0 25.53-.07l25.46-25.6a18.05 18.05 0 0 0-.07-25.53l-25.6-25.45a18.05 18.05 0 0 0-25.53.07l-25.46 25.6a18.05 18.05 0 0 0 .07 25.53zM227.13 584.89l-25.6-25.46a18.05 18.05 0 0 0-25.53.08l-25.46 25.59a18.06 18.06 0 0 0 .08 25.53l25.6 25.46a18.05 18.05 0 0 0 25.53-.07l25.45-25.6a18.05 18.05 0 0 0-.07-25.53zM303.86 635.73l25.46-25.6a18.05 18.05 0 0 0-.08-25.53l-25.59-25.45a18.05 18.05 0 0 0-25.53.07l-25.46 25.6a18.05 18.05 0 0 0 .07 25.53l25.6 25.45a18.05 18.05 0 0 0 25.53-.07zM304.15 737.85l25.45-25.6a18.05 18.05 0 0 0-.07-25.53l-25.6-25.46a18.05 18.05 0 0 0-25.53.07l-25.4 25.6a18.05 18.05 0 0 0 .07 25.53l25.6 25.46a18.05 18.05 0 0 0 25.48-.07z" fill="#b70e5e"></path><path d="M225.92 150.9l-25.46 25.6a18.06 18.06 0 0 0 .07 25.53l25.6 25.46a18.05 18.05 0 0 0 25.53-.07l25.46-25.6a18.05 18.05 0 0 0-.07-25.53l-25.6-25.46a18.06 18.06 0 0 0-25.53.07zM353.78 227.13l25.45-25.6a18.05 18.05 0 0 0-.07-25.53l-25.6-25.45a18.05 18.05 0 0 0-25.53.07l-25.45 25.6a18.05 18.05 0 0 0 .07 25.53l25.6 25.45a18.05 18.05 0 0 0 25.53-.07zM302.93 303.86l25.6 25.46a18.05 18.05 0 0 0 25.53-.07l25.46-25.6a18.05 18.05 0 0 0-.07-25.53l-25.6-25.46a18.05 18.05 0 0 0-25.53.07l-25.46 25.6a18.05 18.05 0 0 0 .07 25.53zM200.82 304.15l25.6 25.45a18.05 18.05 0 0 0 25.53-.07l25.46-25.6a18.06 18.06 0 0 0-.08-25.53l-25.6-25.4a18.05 18.05 0 0 0-25.53.07l-25.45 25.6a18.05 18.05 0 0 0 .07 25.48z" fill="#74c6be"></path><path d="M787.76 225.92l-25.6-25.46a18.06 18.06 0 0 0-25.53.07l-25.46 25.6a18.06 18.06 0 0 0 .08 25.53l25.6 25.46a18.05 18.05 0 0 0 25.53-.07l25.45-25.6a18.05 18.05 0 0 0-.07-25.53zM711.53 353.78l25.6 25.45a18.05 18.05 0 0 0 25.53-.07l25.46-25.6a18 18 0 0 0-.07-25.52l-25.6-25.46a18.05 18.05 0 0 0-25.53.07l-25.46 25.6a18.06 18.06 0 0 0 .07 25.53zM634.81 302.94l-25.46 25.59a18.05 18.05 0 0 0 .07 25.53L635 379.52a18.05 18.05 0 0 0 25.53-.07l25.47-25.6a18.06 18.06 0 0 0-.08-25.53l-25.6-25.46a18 18 0 0 0-25.51.08zM634.52 200.82l-25.46 25.6a18.05 18.05 0 0 0 .07 25.53l25.6 25.45a18.05 18.05 0 0 0 25.53-.07l25.46-25.6a18.05 18.05 0 0 0-.07-25.53l-25.6-25.45a18.05 18.05 0 0 0-25.53.07z" fill="#cfdb00"></path><path d="M734.5 834.85l-21.68-21.56a18.05 18.05 0 0 0-25.53.07L661.83 839a18.05 18.05 0 0 1-25.53.07l-25.6-25.45a18 18 0 0 0-25.52.07l-25.46 25.6a18.05 18.05 0 0 1-25.53.07l-25.6-25.46a18.05 18.05 0 0 1-.07-25.53L534 762.73a18.06 18.06 0 0 0-.08-25.53l-25.59-25.45a18.05 18.05 0 0 1-.08-25.53l25.46-25.6a18.05 18.05 0 0 0-.07-25.53L508 609.64a18.05 18.05 0 0 0-25.53.07l-140 140.79A180.54 180.54 0 0 1 123.28 779c-8.6-5-10-3.66-3.29 3.77q8.87 9.88 18.4 19.37c162 161.07 412 179.55 594.17 55.87 8.25-5.61 9.01-16.13 1.94-23.16z" fill="#ea5504"></path><path d="M103.82 734.5l21.56-21.68a18.06 18.06 0 0 0-.08-25.53l-25.6-25.46a18.06 18.06 0 0 1-.07-25.53l25.46-25.6a18 18 0 0 0-.07-25.52l-25.6-25.46a18.05 18.05 0 0 1-.07-25.53l25.45-25.6a18.05 18.05 0 0 1 25.53-.07l25.6 25.48a18.05 18.05 0 0 0 25.53-.07l25.46-25.6a18.06 18.06 0 0 1 25.53-.07l25.6 25.46a18 18 0 0 0 25.52-.07L329 508a18.05 18.05 0 0 0-.07-25.53l-140.8-140a180.46 180.46 0 0 1-28.48-219.19c5-8.6 3.65-10-3.77-3.29q-9.89 8.87-19.38 18.4c-161.07 162-179.54 412-55.87 594.18 5.64 8.24 16.16 9 23.19 1.93z" fill="#b70e5e"></path><path d="M204.17 103.82l21.68 21.56a18.06 18.06 0 0 0 25.53-.08l25.46-25.6a18 18 0 0 1 25.52-.07L328 125.09a18.05 18.05 0 0 0 25.53-.07L379 99.42a18.05 18.05 0 0 1 25.53-.07l25.59 25.45a18 18 0 0 1 .08 25.53l-25.46 25.6a18.05 18.05 0 0 0 .07 25.53l25.6 25.46a18.05 18.05 0 0 1 .07 25.53L405 278.05a18 18 0 0 0 .07 25.52L430.65 329a18 18 0 0 0 25.52-.07l140-140.8a180.47 180.47 0 0 1 219.2-28.48c8.59 5 10 3.66 3.29-3.77q-8.88-9.89-18.4-19.38C638.3-24.54 388.29-43 206.1 80.66c-8.25 5.6-9 16.13-1.93 23.16z" fill="#74c6be"></path><path d="M839 302.36L813.58 328a18 18 0 0 0 .07 25.52l25.6 25.48a18.05 18.05 0 0 1 .07 25.53l-25.46 25.6a18.05 18.05 0 0 1-25.53.07l-25.6-25.46a18.06 18.06 0 0 0-25.53.07l-25.45 25.6a18 18 0 0 1-25.53.07L660.62 405a18.05 18.05 0 0 0-25.53.07l-25.46 25.6a18.05 18.05 0 0 0 .08 25.53l140.79 140A180.46 180.46 0 0 1 779 815.39c-5 8.6-3.66 9.94 3.77 3.29q9.87-8.88 19.37-18.4c161.07-162 179.55-412 55.87-594.17-5.6-8.25-16.12-9-23.15-1.94l-21.56 21.68a18.05 18.05 0 0 0 .07 25.53L839 276.83a18.05 18.05 0 0 1 0 25.53z" fill="#cfdb00"></path></svg></svg> <!----></g></g> <g transform="translate(67,17.079099655151367)"><g data-gra="path-name" fill-rule="" class="tp-name iconsvg-namesvg"><g transform="scale(1)"><g><path d="M21.5-16.87C21.5-22.5 17.51-25.48 11.09-25.48 5.31-25.48 1.44-22.61 1.44-18.73 1.44-9.58 16.65-12.88 16.65-6.96 16.65-4.92 14.53-3.59 11.52-3.59 8.04-3.59 5.99-5.38 5.99-8.29L1.08-8.29C1.08-2.33 5.28 0.36 11.63 0.36 17.44 0.36 21.5-2.55 21.5-6.96 21.5-16.08 6.14-13.31 6.14-18.66 6.14-20.81 8.76-21.57 11.12-21.57 14.39-21.57 16.65-19.74 16.65-16.87ZM36.78 0.36C43.92 0.36 47.8-3.84 48.62-9.04L43.71-9.04C42.88-5.92 40.33-3.88 36.64-3.88 31.72-3.88 28.6-8.22 28.6-12.92 28.6-17.87 32.08-21.21 36.57-21.21 40.84-21.21 43.06-18.8 43.78-15.83L48.62-15.83C47.91-22 43.06-25.48 36.24-25.48 28.6-25.48 23.86-19.7 23.86-12.56 23.86-5.45 28.21 0.36 36.78 0.36ZM68.15-9.8C68.15-6.21 65.78-4.38 62.33-4.38 58.78-4.38 56.77-6.21 56.77-9.8L56.77-25.12 51.85-25.12 51.85-9.08C51.85-2.66 56.73 0.36 62.37 0.36 68.18 0.36 72.92-2.66 72.92-9.08L72.92-25.12 68.15-25.12ZM77.26-25.12L77.26 0 87.63 0C95.28 0 98.61-5.45 98.61-12.56 98.61-19.7 95.28-25.12 87.63-25.12ZM86.05-20.42C90.32-20.42 93.52-18.77 93.52-12.56 93.52-6.32 90.36-4.74 86.09-4.74L82.14-4.74 82.14-20.42ZM102.42 0L121 0 121-4.74 107.3-4.74 107.3-10.62 119.86-10.62 119.86-15.07 107.3-15.07 107.3-20.42 121-20.42 121-25.12 102.42-25.12ZM124.02 0L128.86 0 128.86-8.86 134.5-8.86 139.2 0 144.65 0 138.8-9.69C141.85-11.2 143.22-14.5 143.22-17.19 143.22-22.25 140.06-25.12 134.39-25.12L124.02-25.12ZM128.86-12.88L128.86-20.89 133.85-20.89C137.08-20.89 138.66-19.56 138.66-17.08 138.66-14.43 136.79-12.88 133.89-12.88ZM147.27 0L152.12 0 152.12-25.12 147.27-25.12ZM169.95-25.12L163.82-25.12 154.81 0 160.05 0 161.63-4.67 172.54-4.67 174.22 0 179.82 0ZM162.88-8.43L166.72-19.92 167.08-19.92 171.21-8.43Z" transform="translate(-1.0800000429153442, 25.479999542236328)"></path></g> <!----> <!----> <!----> <!----> <!----> <!----> <!----></g></g> <!----></g></g><defs v-gra="od"></defs></svg>